PathFileType	4	(X/Y/Z)	69_2_87_p0_0-258.trc
DataRate	CameraRate	NumFrames	NumMarkers	Units	OrigDataRate	OrigDataStartFrame	OrigNumFrames
59.0	59.0	4	27	m	59.0	0	259
Frame#	Time	RHip			RKnee			RAnkle			RBigToe			RSmallToe			RHeel			LHip			LKnee			LAnkle			LBigToe			LSmallToe			LHeel			Neck			Head			Nose			RShoulder			RElbow			RWrist			RThumb			RIndex			RPinky			LShoulder			LElbow			LWrist			LThumb			LIndex			LPinky			
		X1	Y1	Z1	X2	Y2	Z2	X3	Y3	Z3	X4	Y4	Z4	X5	Y5	Z5	X6	Y6	Z6	X7	Y7	Z7	X8	Y8	Z8	X9	Y9	Z9	X10	Y10	Z10	X11	Y11	Z11	X12	Y12	Z12	X13	Y13	Z13	X14	Y14	Z14	X15	Y15	Z15	X16	Y16	Z16	X17	Y17	Z17	X18	Y18	Z18	X19	Y19	Z19	X20	Y20	Z20	X21	Y21	Z21	X22	Y22	Z22	X23	Y23	Z23	X24	Y24	Z24	X25	Y25	Z25	X26	Y26	Z26	X27	Y27	Z27	
0	0.0	0.2915717101884782	0.530042151972153	0.49944198831535275	0.24166664106665842	0.5487042584443039	0.9235556421661458	0.22097704249911004	0.618174479737176	1.3322624825302924	0.24687520020239218	0.4698451253097747	1.3564420163291109	0.2994923687110662	0.5042490757580405	1.3555125843572478	0.1630997136760978	0.7044438787632537	1.4019628706523009	0.13019120915724594	0.46754190355780456	0.5034767090700362	0.07757796188086567	0.49039160449399555	0.8976924066693824	0.03716253812053218	0.568733981286449	1.3259133138023944	0.1051831296757585	0.4181520446877002	1.3294195774739324	0.05014685952506468	0.4203662456360917	1.3201265566538698	0.0280359959735035	0.6065021603021108	1.3793705784295525	0.22640002606837997	0.5021108231658186	-0.010331701479088786	0.25152078796448196	0.4728878940773492	-0.24913674950818518	0.2717993915208367	0.43107194782162284	-0.12833905120561695	0.3682748745205166	0.54403131694831	0.08087038276447246	0.37271645954576516	0.525954122212973	0.32530190726019	0.3145358866059029	0.3770617149673931	0.4904135114070053	0.23023246874790987	0.33624879084033205	0.5641859111035309	0.23102442319741298	0.3338376936907996	0.6036201971385006	0.2333818936360626	0.3634937582719434	0.6038133643853016	0.07092886614976614	0.4505754252197646	0.061322794785898894	0.07576803339222536	0.40262761064540253	0.29778239262911144	0.21439267550894742	0.3053079927568914	0.45758125658220367	0.26120570998927395	0.3374063776110792	0.5477453266983882	0.24347074471633587	0.3261278750166793	0.5824879005589914	0.23339460545365306	0.29706366834558334	0.578406645010575
1	0.01694915254237288	0.29162566902774895	0.5301288273998923	0.49978037147003523	0.25109001373035333	0.5357521197721974	0.9217228076119891	0.2213863303032098	0.6173744415271735	1.3320186558969138	0.24553800038718268	0.4828182151983203	1.363709940892987	0.3091588267612072	0.4792750634322736	1.340082589556759	0.1737334022908789	0.6889203854175293	1.3924411682674442	0.13013367348056973	0.4675236381579397	0.5034064701111353	0.07848829742684481	0.4887781566882278	0.9014562980842991	0.037404422141034475	0.5685154572016841	1.3259147770148816	0.11478892805967707	0.4058582125149733	1.321273704647677	0.05100448425381338	0.4194488895666032	1.324330331829486	0.039833464001769917	0.5924292651918032	1.3742928344053928	0.22644135023036913	0.5019633817988434	-0.010213016026195858	0.25134143436422635	0.4736544611330126	-0.24580567839572734	0.2716878620622748	0.43083074701792035	-0.12530743111237594	0.3649094508735947	0.5414846270106427	0.08452813666333191	0.3691936764645856	0.5231264068209613	0.32522782307629305	0.31440232222541226	0.3756940075703908	0.4865974242838859	0.23041688804427843	0.33732696589091626	0.569840154705244	0.23110925295201099	0.3340002534689001	0.6037466702709078	0.24052461793201915	0.35534558856646803	0.6087572634665706	0.07066798972271209	0.4517595346967354	0.0646753710304336	0.07576191316903118	0.4025936159458885	0.29775350755083024	0.21476478326055115	0.30453576605309723	0.4611225571062139	0.2775400414006531	0.3174878515630142	0.5445432403115229	0.2519240681766587	0.31603474515434665	0.5786668340500777	0.23313924580673764	0.298067060230416	0.5790414375089575
2	0.03389830508474576	0.29166581412587855	0.5300649258673312	0.4997562073253569	0.25011063582771403	0.5355674195454729	0.9261897357011154	0.2315307873903721	0.6027742489759986	1.3277358228632208	0.24705543553848164	0.46930902511227385	1.3560975501636627	0.30933586125319656	0.47837153359356216	1.3398130816918539	0.17362892392070567	0.6892921126373402	1.3929352372992423	0.13005932142605212	0.4674884985065092	0.5033787079349372	0.07732513149723368	0.4890719115897336	0.9054186912474994	0.03749023598431133	0.5685616684269711	1.3259532901448143	0.11512527973100911	0.3932546831413869	1.3185584495663096	0.06100210697568872	0.4072524514719408	1.3156284256879363	0.0398288039532206	0.5935572023571256	1.374886621956546	0.22645468093838486	0.5018880482233994	-0.01022760210527719	0.25160593328750086	0.47265991627188814	-0.24921640718153942	0.27167722649403675	0.4309526722799434	-0.1252885002475078	0.36489899173128404	0.5414720497140535	0.08454847644411068	0.36922484096147773	0.523009695092542	0.3251761721709566	0.31449487817130367	0.37666435923845665	0.49044674143387607	0.23144975805786058	0.32456215471321415	0.5660708474777902	0.23111283347459266	0.3338129626159052	0.6035580360711955	0.24042766608298366	0.35500326122302744	0.608658462981474	0.07068822156818563	0.45168104226663147	0.06464635017495955	0.07611515330787068	0.401965135635508	0.30156290599215235	0.21473503227222104	0.3044607461450615	0.46110038057024627	0.2691356571870817	0.3268602286987017	0.54440739026016	0.2436003150254809	0.32570003056955155	0.5824120164568155	0.23314866553783312	0.2978348821614152	0.5788820411795931
3	0.05084745762711865	0.2916794623359321	0.5302232906567654	0.49975101469117883	0.24664839409534176	0.5330471410749084	0.9257382594700676	0.22798831137334188	0.5992984483833583	1.3267173438926043	0.2470964897563762	0.4693648290978625	1.3560138545248954	0.3094107091455922	0.47855384623217456	1.3398073776234651	0.17377008720091605	0.6889972100707372	1.3927331538197163	0.13052536495034284	0.4665413629072152	0.5069109497096598	0.0776500709889474	0.4871366083188754	0.900244870587184	0.038250013461434064	0.5671535465089216	1.3293133016706329	0.11505515894095601	0.39333638476828975	1.3186469981314828	0.051225554606486465	0.41879499237292744	1.3237527589058422	0.04022205754248733	0.5926951375797056	1.3741937969838594	0.22644423038036463	0.5018726690687579	-0.010250510138456353	0.2516393552399713	0.47248879778815644	-0.24925822715740809	0.2717972700289239	0.42991251874984515	-0.12869303961164372	0.36490435044720154	0.5415054335666417	0.08453345293484264	0.36920563877936413	0.5230978744816471	0.32512435180798105	0.31138000837518953	0.3728559185531616	0.486100686734743	0.23961617195821558	0.3151007482742436	0.5623960984157655	0.23120979308572134	0.33366474841447374	0.6032687881363874	0.23328631567519656	0.36312289679710985	0.6037885230744283	0.07065037285946171	0.4517227310446411	0.06468712687931763	0.0760082120795051	0.4021306531892116	0.30156803781554553	0.21466123122209385	0.3046191405528592	0.4610581544176947	0.2655760718106975	0.32414953022471044	0.5440916703704652	0.24363290412592986	0.324367318370187	0.5779031648724666	0.23180389882936284	0.3105768157606753	0.5793172733347635
